<?xml version="1.0" encoding="UTF-8" standalone="no"?>
<svg
   width="16"
   height="16"
   version="1.1"
   id="svg1"
   sodipodi:docname="PhysicsParticles3D.svg"
   inkscape:version="1.4.2 (f4327f4, 2025-05-13)"
   xmlns:inkscape="http://www.inkscape.org/namespaces/inkscape"
   xmlns:sodipodi="http://sodipodi.sourceforge.net/DTD/sodipodi-0.dtd"
   xmlns="http://www.w3.org/2000/svg"
   xmlns:svg="http://www.w3.org/2000/svg">
  <defs
     id="defs1" />
  <sodipodi:namedview
     id="namedview1"
     pagecolor="#ffffff"
     bordercolor="#000000"
     borderopacity="0.25"
     inkscape:showpageshadow="2"
     inkscape:pageopacity="0.0"
     inkscape:pagecheckerboard="0"
     inkscape:deskcolor="#d1d1d1"
     inkscape:zoom="50.4375"
     inkscape:cx="7.9900867"
     inkscape:cy="8"
     inkscape:window-width="1920"
     inkscape:window-height="1009"
     inkscape:window-x="1432"
     inkscape:window-y="-8"
     inkscape:window-maximized="1"
     inkscape:current-layer="svg1" />
  <path
     fill="#fc7f7f"
     d="M12 11a3 3 0 0 0 .414-5.969 4.5 5 0 0 0-8.824 0 3 3 0 0 0 .414 5.967zm-8 1a1 1 0 0 0 0 2 1 1 0 0 0 0-2zm8 0a1 1 0 0 0 0 2 1 1 0 0 0 0-2zm-4 1a1 1 0 0 0 0 2 1 1 0 0 0 0-2z"
     id="path1"
     style="fill:#7e00ff;fill-opacity:1" />
</svg>
